<?xml version="1.0" encoding="UTF-8" standalone="no"?>
<svg
   xmlns:dc="http://purl.org/dc/elements/1.1/"
   xmlns:cc="http://creativecommons.org/ns#"
   xmlns:rdf="http://www.w3.org/1999/02/22-rdf-syntax-ns#"
   xmlns:svg="http://www.w3.org/2000/svg"
   xmlns="http://www.w3.org/2000/svg"
   xmlns:xlink="http://www.w3.org/1999/xlink"
   xmlns:sodipodi="http://sodipodi.sourceforge.net/DTD/sodipodi-0.dtd"
   xmlns:inkscape="http://www.inkscape.org/namespaces/inkscape"
   width="600"
   height="240"
   id="svg2"
   version="1.1"
   inkscape:version="0.91 r13725"
   sodipodi:docname="doc-logo.svg"
   inkscape:export-filename="/home/arthur/PhpstormProjects/Shaarli/tpl/default/img/logo.png"
   inkscape:export-xdpi="90"
   inkscape:export-ydpi="90">
  <sodipodi:namedview
     pagecolor="#ffffff"
     bordercolor="#666666"
     borderopacity="1"
     objecttolerance="10"
     gridtolerance="10"
     guidetolerance="10"
     inkscape:pageopacity="0"
     inkscape:pageshadow="2"
     inkscape:window-width="1920"
     inkscape:window-height="1055"
     id="namedview3564"
     showgrid="false"
     inkscape:zoom="0.52060737"
     inkscape:cx="-292.53855"
     inkscape:cy="-140.22229"
     inkscape:window-x="0"
     inkscape:window-y="0"
     inkscape:window-maximized="1"
     inkscape:current-layer="g5958" />
  <title
     id="title6384">Shaarli Logo</title>
  <defs
     id="defs4">
    <linearGradient
       id="linearGradient4405">
      <stop
         style="stop-color:#000000;stop-opacity:1;"
         offset="0"
         id="stop4407" />
      <stop
         style="stop-color:#ffffff;stop-opacity:1;"
         offset="1"
         id="stop4409" />
    </linearGradient>
    <linearGradient
       id="b0ddce">
      <stop
         style="stop-color:#8aea00;stop-opacity:1;"
         offset="0"
         id="stop3782" />
      <stop
         style="stop-color:#ebff36;stop-opacity:1;"
         offset="1"
         id="stop3784" />
    </linearGradient>
    <linearGradient
       id="linearGradient4333-6-7">
      <stop
         style="stop-color:#ffffff;stop-opacity:1;"
         offset="0"
         id="stop4335-0-4" />
      <stop
         style="stop-color:#e1e1e1;stop-opacity:1;"
         offset="1"
         id="stop4337-49-0" />
    </linearGradient>
    <linearGradient
       xlink:href="#linearGradient4333-6-7"
       id="linearGradient4435"
       gradientUnits="userSpaceOnUse"
       gradientTransform="translate(-606.51586,-487.01655)"
       x1="845.7998"
       y1="637.30005"
       x2="845.7998"
       y2="509.84348" />
    <linearGradient
       xlink:href="#linearGradient4405"
       id="linearGradient4437"
       gradientUnits="userSpaceOnUse"
       gradientTransform="translate(-1434.0326,365.55395)"
       x1="1984.2427"
       y1="-348.63434"
       x2="1984.2427"
       y2="-293.69879" />
    <linearGradient
       xlink:href="#linearGradient4333-6-7"
       id="linearGradient4439"
       gradientUnits="userSpaceOnUse"
       gradientTransform="translate(-699.19746,-487.01655)"
       x1="845.7998"
       y1="637.30005"
       x2="845.7998"
       y2="509.84348" />
    <linearGradient
       xlink:href="#linearGradient4333-6-7"
       id="linearGradient4441"
       gradientUnits="userSpaceOnUse"
       gradientTransform="translate(-699.87915,-487.01655)"
       x1="845.7998"
       y1="637.30005"
       x2="845.7998"
       y2="509.84348" />
    <linearGradient
       xlink:href="#linearGradient4333-6-7"
       id="linearGradient4443"
       gradientUnits="userSpaceOnUse"
       gradientTransform="translate(-703.2869,-487.01655)"
       x1="845.7998"
       y1="637.30005"
       x2="845.7998"
       y2="509.84348" />
    <linearGradient
       xlink:href="#linearGradient4333-6-7"
       id="linearGradient4445"
       gradientUnits="userSpaceOnUse"
       gradientTransform="translate(-701.24225,-487.01655)"
       x1="845.7998"
       y1="637.30005"
       x2="845.7998"
       y2="509.84348" />
    <linearGradient
       xlink:href="#linearGradient4333-6-7"
       id="linearGradient4447"
       gradientUnits="userSpaceOnUse"
       gradientTransform="translate(-699.1976,-487.01655)"
       x1="845.7998"
       y1="637.30005"
       x2="845.7998"
       y2="509.84348" />
    <linearGradient
       xlink:href="#linearGradient4333-6-7"
       id="linearGradient4449"
       gradientUnits="userSpaceOnUse"
       gradientTransform="translate(-701.24225,-487.01655)"
       x1="845.7998"
       y1="637.30005"
       x2="845.7998"
       y2="509.84348" />
    <linearGradient
       xlink:href="#linearGradient4333-6-7"
       id="linearGradient4451"
       gradientUnits="userSpaceOnUse"
       gradientTransform="translate(-701.24225,-487.01655)"
       x1="845.7998"
       y1="637.30005"
       x2="845.7998"
       y2="509.84348" />
    <linearGradient
       xlink:href="#linearGradient4333-6-7"
       id="linearGradient4453"
       gradientUnits="userSpaceOnUse"
       gradientTransform="translate(-701.24225,-487.01655)"
       x1="845.7998"
       y1="637.30005"
       x2="845.7998"
       y2="509.84348" />
    <linearGradient
       y2="509.84348"
       x2="845.7998"
       y1="637.30005"
       x1="845.7998"
       gradientTransform="translate(-701.24225,-487.01655)"
       gradientUnits="userSpaceOnUse"
       id="linearGradient6071"
       xlink:href="#linearGradient4333-6-7" />
    <linearGradient
       y2="509.84348"
       x2="845.7998"
       y1="637.30005"
       x1="845.7998"
       gradientTransform="translate(-701.24225,-487.01655)"
       gradientUnits="userSpaceOnUse"
       id="linearGradient6073"
       xlink:href="#linearGradient4333-6-7" />
    <linearGradient
       y2="509.84348"
       x2="845.7998"
       y1="637.30005"
       x1="845.7998"
       gradientTransform="translate(-701.24225,-487.01655)"
       gradientUnits="userSpaceOnUse"
       id="linearGradient6075"
       xlink:href="#linearGradient4333-6-7" />
    <linearGradient
       y2="509.84348"
       x2="845.7998"
       y1="637.30005"
       x1="845.7998"
       gradientTransform="translate(-699.1976,-487.01655)"
       gradientUnits="userSpaceOnUse"
       id="linearGradient6077"
       xlink:href="#linearGradient4333-6-7" />
    <linearGradient
       y2="509.84348"
       x2="845.7998"
       y1="637.30005"
       x1="845.7998"
       gradientTransform="translate(-701.24225,-487.01655)"
       gradientUnits="userSpaceOnUse"
       id="linearGradient6079"
       xlink:href="#linearGradient4333-6-7" />
    <linearGradient
       y2="509.84348"
       x2="845.7998"
       y1="637.30005"
       x1="845.7998"
       gradientTransform="translate(-703.2869,-487.01655)"
       gradientUnits="userSpaceOnUse"
       id="linearGradient6081"
       xlink:href="#linearGradient4333-6-7" />
    <linearGradient
       y2="509.84348"
       x2="845.7998"
       y1="637.30005"
       x1="845.7998"
       gradientTransform="translate(-699.87915,-487.01655)"
       gradientUnits="userSpaceOnUse"
       id="linearGradient6083"
       xlink:href="#linearGradient4333-6-7" />
    <linearGradient
       y2="509.84348"
       x2="845.7998"
       y1="637.30005"
       x1="845.7998"
       gradientTransform="translate(-699.19746,-487.01655)"
       gradientUnits="userSpaceOnUse"
       id="linearGradient6085"
       xlink:href="#linearGradient4333-6-7" />
    <linearGradient
       y2="-293.69879"
       x2="1984.2427"
       y1="-348.63434"
       x1="1984.2427"
       gradientTransform="translate(-1434.0326,365.55395)"
       gradientUnits="userSpaceOnUse"
       id="linearGradient6087"
       xlink:href="#b0ddce" />
    <linearGradient
       y2="509.84348"
       x2="845.7998"
       y1="637.30005"
       x1="845.7998"
       gradientTransform="translate(-606.51586,-487.01655)"
       gradientUnits="userSpaceOnUse"
       id="linearGradient6089"
       xlink:href="#linearGradient4333-6-7" />
    <linearGradient
       y2="-5.3252554"
       x2="1795.8763"
       y1="-116.8399"
       x1="1795.8763"
       gradientTransform="translate(-1431.3064,219.11539)"
       gradientUnits="userSpaceOnUse"
       id="linearGradient6095"
       xlink:href="#linearGradient4405" />
    <mask
       id="mask6091"
       maskUnits="userSpaceOnUse">
      <rect
         y="11.978719"
         x="8.1208458"
         height="153.34807"
         width="582.72266"
         id="rect6093"
         style="color:#000000;fill:url(#linearGradient6095);fill-opacity:1;fill-rule:nonzero;stroke:none;stroke-width:0" />
    </mask>
    <clipPath
       clipPathUnits="userSpaceOnUse"
       id="clipPath3636">
      <rect
         style="fill:#0000ff;fill-rule:evenodd;stroke:#000000;stroke-width:1px;stroke-linecap:butt;stroke-linejoin:miter;stroke-opacity:1"
         id="rect3638"
         width="74.072136"
         height="68.309639"
         x="539.56232"
         y="-78.488182" />
    </clipPath>
  </defs>
  <metadata
     id="metadata7">
    <rdf:RDF>
      <cc:Work
         rdf:about="">
        <dc:format>image/svg+xml</dc:format>
        <dc:type
           rdf:resource="http://purl.org/dc/dcmitype/StillImage" />
        <dc:title>Shaarli Logo</dc:title>
        <dc:creator>
          <cc:Agent>
            <dc:title>http://blog.idleman.fr/</dc:title>
          </cc:Agent>
        </dc:creator>
        <dc:date>2012-08-29 22:36:01+02:00</dc:date>
        <dc:publisher>
          <cc:Agent>
            <dc:title>http://sebsauvage.net/</dc:title>
          </cc:Agent>
        </dc:publisher>
        <dc:subject>
          <rdf:Bag>
            <rdf:li>Shaarli</rdf:li>
            <rdf:li>Logo</rdf:li>
          </rdf:Bag>
        </dc:subject>
        <dc:contributor>
          <cc:Agent>
            <dc:title>http://thatguynamedandy.com/,
http://mro.name/me</dc:title>
          </cc:Agent>
        </dc:contributor>
        <cc:license
           rdf:resource="http://www.opensource.org/licenses/zlib-license.php" />
        <dc:source>http://sebsauvage.net/files/shaarli_logo.zip</dc:source>
        <dc:relation>http://sebsauvage.net/wiki/doku.php?id=php:shaarli:discussion#comment_09a1e91bc0abc7db6d186a6abf429877</dc:relation>
      </cc:Work>
    </rdf:RDF>
  </metadata>
  <g
     id="g5958"
     transform="matrix(3.3045036,0,0,3.3529369,-1604.3162,259.07481)">
    <path
       id="text4338"
       d="m 577.10039,-74.803851 c -4.7431,8e-5 -9.3884,1.94508 -12.1562,5.65625 -2.3938,3.20927 -3.2655,7.282089 -3.5,11.843739 -5.2417,0.10768 -9.658,0.710669 -13.2813,2.53125 -3.7519,1.88519 -6.5576,5.75636 -6.9063,9.937501 l -0.062,0 c -0.013,0.1027 0.011,0.20947 0,0.312501 0,0.043 -0.03,0.0819 -0.031,0.125 l 0.031,0 c -0.383,3.941889 0.8037,8.08581 3.625,10.843751 1.7434,1.70445 3.9242,2.79035 6.3124,3.59375 l -0.875,2.437499 -0.062,0.125 -0.031,0.125 c -1.0239,3.327909 -0.9882,7.094438 0.8437,10.156248 1.8322,3.06181 4.9132,4.853339 8.3438,5.906249 l 0.7188,0.21875 0.75,0 2.2812,0 c 4.1038,5e-5 8.0184,-1.11288 11.1562,-3.499998 1.388,-1.05587 2.5677,-2.381021 3.5938,-3.812501 2.738,2.555901 6.0541,4.80834 10,6.781249 l 0.5,0.25 0.5312,0.15625 c 3.235,0.79227 6.3972,0.95306 9.4063,-0.1875 2.9956,-1.135419 5.3523,-3.789728 6.4375,-6.718749 l 0.031,0 0,-0.0312 c 1.3188,-3.58119 1.0754,-7.658089 -0.4687,-11.187497 -0.3593,-0.82136 -0.9637,-1.56048 -1.4375,-2.34375 0.7988,-0.35352 1.5774,-0.75006 2.3125,-1.28125 3.1456,-2.2731 4.4669,-6.439582 4.1563,-10.250002 l 0.031,0 c 0,-0.12851 -0.061,-0.24691 -0.062,-0.375 -0.017,-0.15367 0.023,-0.31671 0,-0.46875 l -0.062,0 c -0.2506,-3.858621 -2.6242,-7.476411 -5.875,-9.5625 -3.1968,-2.051432 -7.2278,-3.197452 -12.0625,-4.031241 -0.5947,-4.029409 -1.4462,-7.641479 -3.125,-10.53125 -2.2702,-3.907799 -6.5646,-6.718649 -11.0625,-6.718749 z m 18.3125,50.62499 c 0.2654,0.97712 0.2969,1.770501 -0.031,2.656249 l 0,0.0312 c -0.3181,0.86918 -0.3036,0.721979 -0.625,0.84375 -0.2585,0.098 -1.2073,0.14918 -2.5624,-0.0625 0.3313,-0.147501 0.7366,-0.143381 1.0312,-0.343751 l 0.4375,-0.28125 0.375,-0.406249 c 0.5814,-0.620169 0.9776,-1.553719 1.375,-2.437499 z"
       style="color:#000000;fill:#b0ddce;fill-opacity:1;fill-rule:nonzero;stroke:none;stroke-width:10"
       inkscape:connector-curvature="0"
       inkscape:export-xdpi="41.733105"
       inkscape:export-ydpi="41.733105" />
    <g
       id="text4342"
       style="font-style:normal;font-variant:normal;font-weight:normal;font-stretch:normal;font-size:165.01513672px;line-height:125%;font-family:'comic andy';-inkscape-font-specification:'comic andy';letter-spacing:0px;word-spacing:0px;fill:#1fa67a;fill-opacity:1;stroke:none"
       inkscape:export-xdpi="41.733105"
       inkscape:export-ydpi="41.733105">
      <path
         id="path101"
         style="fill:#1fa67a;fill-opacity:1"
         d="m 577.10444,-69.796495 q 8.54083,0 9.83001,16.920497 l 2.33664,0 q 15.22844,2.336639 15.0673,9.668856 1.28918,8.621398 -11.03861,7.976808 9.42713,8.2991 6.7682,15.470167 -2.09492,5.720739 -9.99116,3.786969 -8.70197,-4.350986 -12.32779,-9.991151 l -1.5309,0 q -3.3841,9.991151 -13.13353,9.991151 l -2.25606,0 q -8.13796,-2.497789 -5.88189,-9.830003 l 2.82008,-7.815658 -0.80574,0 q -11.92492,-1.692048 -10.79688,-10.555167 0.32229,-8.137955 16.35648,-8.218528 4.43155,-0.483444 3.70639,-2.820085 0,-14.583856 10.87746,-14.583856 z m -4.5927,16.034185 -0.16115,4.512133 q -0.24172,3.3841 -2.17549,3.3841 l -12.73066,0.725164 q -2.98123,0.08057 -2.98123,2.417214 0,2.256067 3.22295,2.417213 11.19976,-0.564015 10.47459,1.530903 l -2.25606,4.834429 q -5.72074,8.621395 -2.82009,10.152298 3.86754,2.336638 10.95804,-12.086069 1.69205,-1.530902 2.82008,0 4.99558,5.317872 8.21853,8.70197 3.30353,3.384099 5.31787,2.014344 2.41721,-2.57836 -1.28918,-5.55959 -3.62582,-3.061805 -8.2991,-8.379677 -0.48344,-1.772623 0.24172,-1.772623 15.79246,1.047459 15.14787,-2.014345 0.48345,-3.3841 -13.69754,-3.3841 -2.17549,0.402869 -3.54525,-1.04746 l 0,-7.896233 q 0,-6.607051 -3.14238,-6.526477 -3.3841,-0.805737 -3.30352,7.976806 z"
         inkscape:connector-curvature="0" />
    </g>
  </g>
</svg>
